<svg xmlns="http://www.w3.org/2000/svg" width="478" height="466" fill="none" viewBox="0 0 478 466"><g clip-path="url(#a)"><path fill="#fff" fill-opacity="0.04" d="M220.556 464.862c-.525-.148-3.16-.748-5.857-1.335-2.697-.586-5.078-1.329-5.292-1.651-.213-.321-1.044-8.602-1.846-18.4-.802-9.799-1.526-18.17-1.608-18.601-.12-.622-1.371-1.029-6.028-1.961-7.707-1.543-18.279-4.414-25.61-6.955-3.238-1.122-6.067-1.892-6.287-1.711s-5.297 6.813-11.283 14.739c-5.986 7.925-11.157 14.64-11.491 14.922-.472.398-1.821.13-6.023-1.194-16.071-5.067-30.872-13.666-41.316-24.005l-2.5-2.474 8.286-17c4.556-9.349 8.298-17.137 8.315-17.305s-1.439-1.514-3.236-2.991c-6.193-5.088-14.365-13.18-22.67-22.447l-1.586-1.768-17.79 7.535c-16.807 7.12-17.843 7.49-18.76 6.718-.533-.449-2.809-2.842-5.056-5.318-9.775-10.766-18.033-25.435-21.768-38.664l-1.053-3.729 1.32-.837c.726-.46 7.937-5.212 16.025-10.56 11.583-7.658 14.688-9.927 14.618-10.687-.048-.53-1.017-3.637-2.154-6.904-2.403-6.913-5.307-17.781-6.516-24.392l-.846-4.628-6.532-.975c-3.592-.537-12.387-1.572-19.545-2.301l-13.013-1.326-1.366-6.228c-1.592-7.252-2.534-15.641-2.593-23.065-.064-8.14 2.636-24.951 4.22-26.272.258-.215 9.095-1.036 19.637-1.824l19.169-1.434.722-3.502c1.993-9.663 6.807-26.358 9.296-32.234.338-.798-1.647-2.386-15.383-12.311l-15.77-11.396.49-1.86c1.014-3.849 4.998-14.037 7.192-18.391 4.674-9.277 12.958-20.634 18.94-25.969l2.15-1.917 17.32 8.079c9.526 4.444 17.521 8.1 17.766 8.125.246.025 1.985-1.678 3.867-3.784 5.156-5.775 11.967-12.368 18.322-17.74 5.196-4.39 5.662-4.915 5.25-5.91-.249-.602-3.767-8.482-7.817-17.512l-7.364-16.419 2.079-2.014c10.189-9.875 25.534-18.984 39.442-23.412 8.841-2.815 6.598-4.4 19.352 13.669l11.062 15.67 4.353-1.448c8.82-2.933 23.081-6.453 31.046-7.662l2.042-.31.783-4.577c.431-2.517 1.441-11.02 2.244-18.897l1.463-14.32 1.784-.522C221.81.736 235.307-.594 246.584-.023c8.443.427 21.383 3 22.079 4.39.142.283.93 8.706 1.751 18.717.822 10.011 1.621 18.356 1.776 18.544s2.661.827 5.568 1.42c7.654 1.56 19.054 4.628 25.881 6.968 3.26 1.117 5.979 2.036 6.043 2.042.063.007 5.318-6.853 11.678-15.245 11.534-15.217 11.567-15.255 12.996-14.865 12.625 3.453 26.888 10.321 36.574 17.613 4.492 3.382 10.943 9.196 11.194 10.088.099.352-3.468 8.138-7.928 17.301-4.459 9.164-8.125 16.832-8.146 17.04-.022.209 1.432 1.588 3.229 3.065 4.724 3.88 13.64 12.484 18.111 17.473 2.123 2.369 4.375 4.851 5.005 5.516l1.145 1.208 17.828-7.516 17.828-7.516 2.059 2c3.364 3.265 10.213 11.635 13.118 16.028 5.502 8.321 10.7 19.625 12.783 27.804l.687 2.696-16.15 10.743-16.151 10.742 2.173 6.271c2.474 7.138 5.276 17.504 6.764 25.016.557 2.814 1.106 5.234 1.22 5.377s8.849 1.247 19.411 2.455l19.204 2.195.883 2.955c1.529 5.122 3.155 17.247 3.28 24.467.171 9.803-2.388 26.513-4.29 28.019-.333.263-8.833 1.074-18.889 1.803s-18.646 1.389-19.089 1.466c-.637.111-1.048 1.325-1.98 5.859-1.542 7.497-4.432 17.78-7.001 24.906-1.135 3.148-1.909 5.889-1.721 6.092s7.026 5.181 15.194 11.062c8.169 5.882 15.09 10.965 15.381 11.296.411.469.144 1.779-1.195 5.868-3.126 9.552-8.12 19.746-13.168 26.882-4.464 6.31-12.852 15.404-14.09 15.277-.313-.032-8.212-3.63-17.554-7.996s-17.147-7.954-17.345-7.974-2.343 2.153-4.766 4.83c-4.738 5.235-12.191 12.415-18.917 18.226l-4.187 3.616 7.82 17.379 7.819 17.378-2.046 1.999c-3.339 3.261-11.893 9.887-16.39 12.694-8.521 5.319-20.137 10.335-28.476 12.295l-2.764.65-10.485-14.871c-5.767-8.179-10.832-15.246-11.256-15.703-.709-.767-1.247-.682-6.748 1.066-9.023 2.867-21.884 5.969-29.123 7.025-1.851.27-2.098.469-2.532 2.039-.264.957-1.27 9.461-2.234 18.898l-1.754 17.158-2.222.699c-3.484 1.097-14.468 2.735-20.977 3.127-5.38.324-20.33-.44-22.935-1.172zm21.854-103.797c29.847-.758 57.368-10.597 79.936-28.578 31.597-25.174 49.116-62.317 48.117-102.017-.599-23.797-8.047-47.05-21.609-67.459-3.713-5.587-12.337-15.883-17.213-20.548-22.04-21.088-49.342-33.686-79.644-36.751-35.328-3.572-68.918 6.139-96.278 27.834-22.46 17.809-37.213 40.569-44.566 68.755-2.297 8.805-3.981 24.098-3.641 33.055.796 20.899 5.764 39.366 15.323 56.952 4.667 8.587 8.264 13.875 14.504 21.324 20.5 24.471 47.894 39.963 81.193 45.917 4.49.802 18.057 1.664 23.878 1.516"/></g><defs><clipPath id="a"><path fill="#fff" d="M.022.321h477.957v465.357H.022z"/></clipPath></defs></svg>