<!-- icons.svg -->
<svg xmlns="http://www.w3.org/2000/svg" style="display: none;">
  <!-- Иконка YouTube -->
  <symbol id="youtube-icon" viewBox="0 -3 20 20">
    <path
      fill="currentColor"
      fill-rule="evenodd"
      d="M7.988 9.586V3.974c1.993.938 3.536 1.843 5.36 2.82-1.505.834-3.367 1.77-5.36 2.792m11.103-8.403c-.344-.453-.93-.805-1.553-.922-1.833-.348-13.267-.349-15.099 0-.5.094-.945.32-1.328.673C-.5 2.429.005 10.452.393 11.75c.164.562.375.968.64 1.235.343.352.812.594 1.351.703 1.51.312 9.284.486 15.122.047a2.62 2.62 0 0 0 1.39-.712c1.49-1.49 1.388-9.962.195-11.841"
    />
  </symbol>

  <!-- Иконка Telegram -->
  <symbol id="telegram-icon" viewBox="0 0 24 24">
    <path
      fill="currentColor"
      d="M19.2 4.4 2.9 10.7c-1.1.4-1.1 1.1-.2 1.3l4.1 1.3 1.6 4.8c.2.5.1.7.6.7.4 0 .6-.2.8-.4l2-2 4.2 3.1c.8.4 1.3.2 1.5-.7l2.8-13.1c.3-1.1-.4-1.7-1.1-1.3zm-2.1 3-7.8 7.1-.3 3.3L7.4 13l9.2-5.8c.4-.3.8-.1.5.2z"
    />
    <path d="M0 0h24v24H0z" style="fill: none" />
  </symbol>

  <!-- Иконка WhatsApp -->
  <symbol id="whatsapp-icon" viewBox="0 0 24 24">
    <path
      fill="currentColor"
      d="M6.014 8.006c.114-.904 1.289-2.132 2.22-1.996V6.01c.907.172 1.625 1.734 2.03 2.436.286.509.1 1.025-.167 1.243-.361.29-.926.692-.808 1.095C9.5 11.5 12 14 13.23 14.711c.466.269.804-.44 1.092-.804.21-.28.726-.447 1.234-.171.759.442 1.474.956 2.135 1.534.33.276.408.684.179 1.115-.403.76-1.569 1.76-2.415 1.557C13.976 17.587 8 15.27 6.08 8.558c-.108-.318-.08-.438-.066-.552Z"
    />
    <path
      fill="currentColor"
      fill-rule="evenodd"
      d="M12 23c-1.224 0-1.9-.131-3-.5l-2.106 1.053A2 2 0 0 1 4 21.763V19.5c-2.153-2.008-3-4.323-3-7.5C1 5.925 5.925 1 12 1s11 4.925 11 11-4.925 11-11 11Zm-6-4.37-.636-.593C3.691 16.477 3 14.733 3 12a9 9 0 1 1 9 9c-.986 0-1.448-.089-2.364-.396l-.788-.264L6 21.764V18.63Z"
      clip-rule="evenodd"
    />
  </symbol>
  <!-- Иконка Телефона -->
  <symbol id="phone-icon">
     <path
        fill-rule="evenodd"
        clip-rule="evenodd"
        d="M4.718 3.092c1.226-1.291 3.254-1.05 4.268.384l1.26 1.784c.811 1.147.743 2.74-.225 3.76l-.245.257a.25.25 0 0 0-.002.006c-.013.036-.045.152-.013.372.067.455.418 1.381 1.846 2.884 1.432 1.508 2.3 1.863 2.703 1.929a.608.608 0 0 0 .294-.007l.408-.43c.874-.92 2.236-1.101 3.335-.469l1.91 1.1c1.633.94 2.013 3.239.708 4.613l-1.42 1.495c-.443.467-1.048.866-1.795.94-1.824.18-6.049-.055-10.478-4.719-4.134-4.351-4.919-8.136-5.018-9.985l.666-.036-.666.036c-.049-.914.358-1.697.894-2.262l1.57-1.652Zm3.043 1.25c-.512-.724-1.433-.768-1.956-.217l-1.57 1.652c-.33.35-.505.75-.483 1.149.08 1.51.731 4.952 4.607 9.032 4.064 4.28 7.809 4.4 9.244 4.258.283-.027.575-.185.854-.479l1.42-1.495c.614-.646.453-1.808-.368-2.28l-1.91-1.1c-.513-.295-1.114-.204-1.499.202l-.456.48-.527-.501c.527.5.527.501.526.502l-.001.001-.003.004-.007.006-.014.014a1.007 1.007 0 0 1-.136.112c-.08.056-.186.119-.321.172-.276.109-.64.167-1.091.094-.878-.142-2.028-.773-3.55-2.376-1.528-1.608-2.113-2.807-2.243-3.7-.067-.454-.014-.817.084-1.092a1.591 1.591 0 0 1 .23-.427l.03-.037.014-.015.006-.007.003-.003.002-.001s0-.002.533.503l-.532-.505.287-.302c.445-.469.51-1.263.088-1.86L7.76 4.342Z"
        fill="currentColor"
     />
    <path
        d="M13.26 1.88a.751.751 0 0 1 .861-.62c.025.005.107.02.15.03.085.018.204.048.352.09.297.087.712.23 1.21.458.996.457 2.321 1.256 3.697 2.631 1.376 1.376 2.175 2.702 2.632 3.698.228.498.37.912.457 1.21a5.727 5.727 0 0 1 .113.454l.005.031a.765.765 0 0 1-.617.878.75.75 0 0 1-.86-.617 2.82 2.82 0 0 0-.081-.327 7.395 7.395 0 0 0-.38-1.004c-.39-.85-1.092-2.024-2.33-3.262-1.237-1.238-2.412-1.939-3.262-2.329a7.394 7.394 0 0 0-1.003-.38 5.749 5.749 0 0 0-.318-.08.759.759 0 0 1-.627-.861Z"
        fill="currentColor"
    />
    <path
        fill-rule="evenodd"
        clip-rule="evenodd"
        d="M13.486 5.33a.75.75 0 0 1 .927-.516l-.206.721.207-.72h.002l.004.001.007.002.02.007a2.995 2.995 0 0 1 .233.089c.146.062.345.158.59.303.49.29 1.157.77 1.942 1.556.785.785 1.267 1.453 1.556 1.942.145.245.241.444.304.59a2.968 2.968 0 0 1 .089.233l.006.02.002.008.001.003v.002l-.72.207.721-.206a.75.75 0 0 1-1.44.422l-.003-.01a3.67 3.67 0 0 0-.25-.504c-.224-.377-.626-.947-1.326-1.647-.7-.7-1.27-1.102-1.646-1.325a3.674 3.674 0 0 0-.504-.25l-.01-.004a.75.75 0 0 1-.506-.925Z"
        fill="currentColor"
    />
  </symbol>
</svg>
