<svg xmlns="http://www.w3.org/2000/svg" width="417" height="61" fill="none" viewBox="0 0 417 61"><path fill="#fff" d="M28.08 42.32 6.3 30.2v-5.22l22.98-11.34 1.44 3.66-16.98 11.04 17.82 8.28zM44.677 47q-2.052 0-2.051-2.197V7.186q0-2.198 2.05-2.198h4.454q2.05 0 2.05 2.198v37.617Q51.18 47 49.13 47zm18.133 0q-1.758 0-1.758-1.758V17.996q0-1.758 1.758-1.758h4.63q1.756 0 1.757 1.758v1.7h.117q1.348-2.315 3.428-3.165 2.079-.879 5.01-.879 4.57 0 7.558 2.871t2.988 10.489v16.23q0 1.758-1.757 1.758h-4.688q-1.758 0-1.758-1.758v-14.12q0-6.388-.879-8.058-.878-1.67-3.779-1.67-3.076 0-4.629 2.403-1.553 2.373-1.553 9.902v11.543q0 1.758-1.757 1.758zm36.356 0q-1.757 0-1.757-1.758v-34.6q0-1.318.615-2.402l2.256-3.955q.644-1.113 1.523-1.113h2.051q1.758 0 1.758 1.758v40.312q0 1.758-1.758 1.758zm17.372 0q-1.758 0-1.758-1.758V17.996q0-1.758 1.758-1.758h4.688q1.758 0 1.758 1.758v27.246q0 1.758-1.758 1.758zm0-35.273q-1.758 0-1.758-1.758v-3.75q0-1.758 1.758-1.758h4.688q1.758 0 1.758 1.758v3.75q0 1.758-1.758 1.758zM133.91 47q-1.758 0-1.758-1.758V17.996q0-1.758 1.758-1.758h4.629q1.758 0 1.758 1.758v1.7h.117q1.347-2.315 3.428-3.165 2.08-.879 5.01-.879 4.57 0 7.558 2.871t2.988 10.489v16.23q0 1.758-1.757 1.758h-4.688q-1.758 0-1.758-1.758v-14.12q0-6.388-.879-8.058t-3.779-1.67q-3.076 0-4.629 2.403-1.553 2.373-1.553 9.902v11.543q0 1.758-1.757 1.758zm32.958-15.38q0-7.413 3.691-11.69 3.721-4.278 10.489-4.278 7.851 0 11.66 4.043 3.808 4.044 3.808 13.008 0 1.758-1.64 1.758H175.54q.468 4.863 2.402 6.123 1.933 1.26 4.483 1.26 2.431 0 3.72-.645a6.3 6.3 0 0 0 2.168-1.758q.996-1.289 2.461-.41l2.93 1.787q1.728 1.055.498 2.52-1.787 2.139-4.19 3.193-2.402 1.055-7.587 1.055-8.409 0-11.983-4.277t-3.574-11.69m8.701-3.018h12.744q0-3.165-1.582-5.157-1.581-2.02-5.039-2.021-2.754 0-4.365 1.933-1.611 1.905-1.758 5.245m27.069-2.608q0-10.107 5.127-16.055 5.127-5.947 14.795-5.947 5.567 0 9.434 1.729 3.867 1.728 5.449 5.01 1.055 2.167-.352 2.93l-3.515 1.874q-1.846.996-3.047-1.113-.762-1.349-2.842-2.432-2.05-1.083-4.834-1.084-6.152 0-8.613 3.897-2.461 3.867-2.461 11.191t2.461 11.22q2.46 3.868 8.613 3.868 3.31 0 5.567-1.494 2.285-1.495 3.164-2.842 1.435-2.198 3.046-1.113l3.516 2.344q1.436.965.293 2.93-1.7 2.928-5.83 5.009-4.131 2.08-10.049 2.08-9.522 0-14.736-5.947-5.186-5.948-5.186-16.055m42.567 5.625q0-7.47 3.838-11.719 3.868-4.248 11.485-4.248t11.455 4.248q3.867 4.248 3.867 11.72 0 7.47-3.867 11.718-3.838 4.248-11.455 4.248-7.618 0-11.485-4.248-3.838-4.248-3.838-11.719m8.672 0q0 5.567 1.7 7.91 1.728 2.315 4.951 2.315t4.922-2.315q1.728-2.343 1.728-7.91 0-5.566-1.728-7.88-1.7-2.344-4.922-2.344-3.223 0-4.951 2.343-1.7 2.314-1.7 7.881m27.86 0q0-6.445 2.784-11.191 2.812-4.776 9.697-4.776 2.637 0 4.512.762t3.398 3.281h.117a24 24 0 0 1-.117-2.343V5.516q0-1.758 1.758-1.758h4.687q1.758 0 1.758 1.758v39.726q0 1.758-1.758 1.758h-4.628q-1.465 0-1.583-1.758l-.117-1.699h-.117q-1.524 2.52-3.398 3.281t-4.512.762q-6.885 0-9.697-4.746-2.784-4.776-2.784-11.22m8.672 0q0 4.688 1.202 7.47 1.23 2.755 5.185 2.755 2.197 0 3.75-2.461 1.582-2.49 1.582-6.446v-2.636q0-3.956-1.582-6.416-1.553-2.49-3.75-2.49-3.955 0-5.185 2.783-1.202 2.754-1.202 7.441m27.45 0q0-7.412 3.692-11.69 3.72-4.276 10.488-4.277 7.851 0 11.66 4.043t3.809 13.008q0 1.758-1.641 1.758h-19.336q.47 4.863 2.403 6.123t4.482 1.26q2.431 0 3.721-.645a6.34 6.34 0 0 0 2.168-1.758q.996-1.289 2.461-.41l2.929 1.787q1.73 1.055.498 2.52-1.787 2.139-4.189 3.193t-7.588 1.055q-8.408 0-11.982-4.277-3.575-4.277-3.575-11.69m8.702-3.017h12.744q0-3.165-1.582-5.157-1.583-2.02-5.039-2.021-2.754 0-4.366 1.933-1.611 1.905-1.757 5.245m26.19 29.472q-1.377-.527-.733-2.168l19.453-50.683q.645-1.64 1.993-1.114l2.373.909q1.377.527.732 2.168L357.116 57.87q-.645 1.641-1.992 1.113zm32.077-15.754-1.44-3.66 16.98-11.04-17.82-8.28 3.48-5.7 21.78 12.12v5.22z"/><path fill="#353A42" d="M240.161 32.394c-1.757-5.435-4.082-8.799-5.539-10.526-.802-4.818-1.722-9.484-1.926-10.053C231.275 7.847 227.406 5 222.854 5c-4.767 0-8.785 3.122-10.026 7.383-.138.473-.99 4.873-1.753 9.498-1.458 1.731-3.776 5.092-5.529 10.513-2.206 6.829 2.891 3.717 4.325.77.361 3.983 2.604 7.437 5.856 9.513a13.2 13.2 0 0 0 7.127 2.07c2.631 0 5.078-.763 7.126-2.07 3.253-2.077 5.495-5.53 5.857-9.514 1.434 2.948 6.531 6.06 4.324-.769m-17.308 10.129c-5.931 0-10.758-4.709-10.758-10.496 0-3.764 2.538-17.853 2.931-19.056.774-2.367 3.059-3.48 5.239-2.46 1.641.767 2.588 2.873 2.588 2.873s.686-2.054 2.283-2.78c2.443-1.113 5.022.54 5.602 2.868.32 1.287 2.874 14.742 2.874 18.555-.001 5.787-4.826 10.496-10.759 10.496"/><path fill="#FF802A" d="M215.727 42.758c-1.157.086-2.182.625-2.118 2.242h18.489c.064-1.617-.96-2.156-2.118-2.242a13.2 13.2 0 0 1-7.126 2.07 13.2 13.2 0 0 1-7.127-2.07"/><path fill="#fff" d="M225.135 10.604c-1.596.726-2.282 2.78-2.282 2.78s-.948-2.105-2.588-2.873c-2.18-1.02-4.465.093-5.24 2.46-.392 1.204-2.93 15.292-2.93 19.056 0 5.787 4.826 10.496 10.758 10.496s10.758-4.708 10.758-10.496c0-3.813-2.554-17.267-2.874-18.554-.58-2.33-3.158-3.981-5.602-2.87m-1.997 6.316c1.597 0 2.206 1.842 2.206 1.842l-2.206 1.559-2.205-1.559s.608-1.842 2.205-1.842m-5.729-2.067c.185-.759.966-1.227 1.745-1.046.778.18 1.258.942 1.072 1.702-.184.758-.965 1.227-1.744 1.046-.778-.18-1.259-.942-1.073-1.702m9.815 1.702c-.777.18-1.559-.288-1.744-1.046-.186-.76.295-1.522 1.073-1.702.778-.181 1.559.287 1.745 1.046.185.76-.296 1.521-1.074 1.702"/><path fill="#FF802A" d="M225.344 18.762s-.609-1.842-2.206-1.842-2.205 1.842-2.205 1.842l2.205 1.559z"/><path fill="#fff" stroke="#353A42" stroke-width="0.5" d="M220.029 15.238c0 .723-.602 1.32-1.359 1.32-.756 0-1.358-.597-1.358-1.32s.602-1.32 1.358-1.32 1.359.597 1.359 1.32Zm8.367 0c0 .723-.603 1.32-1.359 1.32-.757 0-1.359-.597-1.359-1.32s.602-1.32 1.359-1.32c.756 0 1.359.597 1.359 1.32Z"/><ellipse cx="218.992" cy="15.2378" fill="#353A42" rx="0.321788" ry="0.313939"/><ellipse cx="227.359" cy="15.2378" fill="#353A42" rx="0.321788" ry="0.313939"/></svg>